<svg enable-background="new 0 0 1544 500" height="500" viewBox="0 0 1544 500" width="1544" xmlns="http://www.w3.org/2000/svg"><rect fill="#22272c" height="499" width="1543" x=".5" y=".5"/><path d="m1543 1v498h-1542v-498zm1-1h-1544v500h1544z"/><g fill="#fff"><path d="m252.6 277.2c-17.5 0-26.2-9.9-26.2-29.8 0-9.9 2.3-17.4 6.8-22.4s11-7.5 19.4-7.5c4 0 7.6.8 11 2.4 3.3 1.6 6 3.7 7.9 6.5.2.3.3.7.3.9 0 .8-.4 1.2-1.2 1.2-.4 0-.7-.2-1-.5-1.8-2.4-4.1-4.3-7.1-5.8s-6.3-2.3-9.9-2.3c-15.6 0-23.5 9.2-23.5 27.5 0 9.7 2 16.7 5.9 21s9.8 6.4 17.6 6.4c3.3 0 6.5-.7 9.6-2 3-1.3 5.5-3.3 7.4-5.9.3-.3.6-.5 1-.5.8 0 1.2.4 1.2 1.2 0 .3-.1.5-.3.8-1.8 2.7-4.4 4.9-7.9 6.5-3.4 1.5-7.1 2.3-11 2.3z"/><path d="m283.4 241.3c3-3.4 7.3-5.1 12.9-5.1s9.8 1.7 12.9 5.1c3 3.4 4.5 8.5 4.5 15.3 0 6.9-1.5 12-4.5 15.4s-7.3 5.1-12.9 5.1-9.8-1.7-12.9-5.1c-3-3.4-4.5-8.5-4.5-15.4-.1-6.8 1.5-11.9 4.5-15.3zm12.9 33.6c9.8 0 14.7-6.1 14.7-18.3 0-12.1-4.9-18.2-14.7-18.2s-14.7 6.1-14.7 18.2c0 12.2 4.9 18.3 14.7 18.3z"/><path d="m325.1 276.3c-.3.3-.6.4-.9.4s-.6-.1-.9-.4-.4-.6-.4-.9v-37.4c0-.3.1-.6.4-.9s.6-.4.9-.4.6.1.9.4.4.6.4.9v6.4c.8-2.1 2.3-4 4.5-5.7s5.2-2.5 8.8-2.5c10.1 0 15.2 5 15.2 15v24.1c0 .3-.1.6-.4.9s-.6.4-.9.4-.6-.1-.9-.4-.4-.6-.4-.9v-24.1c0-4-.9-7.1-2.8-9.4s-5.2-3.4-9.9-3.4c-4.3 0-7.6 1.4-9.9 4.1s-3.4 5.9-3.4 9.6v23.3c.1.4 0 .7-.3.9z"/><path d="m367.2 237.4v-10.4c0-.3.1-.6.4-.9s.6-.4.9-.4.6.1.9.4.4.6.4.9v10.4h7.7c.7 0 1.1.4 1.1 1.1s-.4 1.1-1.1 1.1h-7.7v27c0 2.5.6 4.4 1.9 5.8s3 2 5.1 2c.7 0 1.1.4 1.1 1.1s-.4 1.1-1.1 1.1c-3 0-5.4-.9-7.1-2.8-1.7-1.8-2.5-4.3-2.5-7.3v-27h-5.2c-.7 0-1.1-.4-1.1-1.1s.4-1.1 1.1-1.1h5.2z"/><path d="m401.1 238.4c-3.1 0-5.5.6-7.2 1.7s-3.2 2.6-4.4 4.5c-.2.4-.6.6-1 .6-.8 0-1.2-.4-1.2-1.2 0-.2.1-.5.3-.8 2.9-4.7 7.4-7.1 13.6-7.1 5 0 8.8 1.2 11.2 3.7s3.7 5.9 3.7 10.3v25.2c0 .8-.4 1.2-1.2 1.2s-1.2-.4-1.2-1.2v-5c-2.8 4.4-7.5 6.6-14 6.6-4.8 0-8.4-1-11-3.1s-3.8-4.9-3.8-8.7 1.4-6.6 4.2-8.7 6.6-3.1 11.5-3.1h13.1v-3.9c0-3.6-1.1-6.3-3.3-8.2-2.3-1.8-5.4-2.8-9.3-2.8zm-1.6 36.4c4 0 7.3-1 10-3.1s4-5 4-8.8v-7.2h-13.1c-4 0-7.1.8-9.5 2.5s-3.6 4.1-3.6 7.2c0 3 1 5.3 3.1 7 2.1 1.6 5.1 2.4 9.1 2.4z"/><path d="m424.4 256.6c0-6.8 1.5-11.9 4.5-15.3s7.3-5.1 12.9-5.1c5.4 0 9.6 1.9 12.6 5.7.2.3.3.5.3.8 0 .7-.4 1.1-1.1 1.1-.3 0-.7-.2-.9-.5-.7-.9-1.4-1.6-2-2.1s-1.7-1.1-3.3-1.7c-1.6-.7-3.5-1-5.6-1-9.8 0-14.7 6.1-14.7 18.2 0 12.2 4.9 18.3 14.7 18.3 3.9 0 7.7-1.4 11.3-4.2.3-.2.5-.3.7-.3.7 0 1.1.4 1.1 1.1 0 .3-.2.7-.5.9-3.9 3.1-8 4.6-12.6 4.6-5.6 0-9.8-1.7-12.9-5.1-3-3.4-4.5-8.5-4.5-15.4z"/><path d="m466.5 237.4v-10.4c0-.3.1-.6.4-.9s.6-.4.9-.4.6.1.9.4.4.6.4.9v10.4h7.7c.7 0 1.1.4 1.1 1.1s-.4 1.1-1.1 1.1h-7.7v27c0 2.5.6 4.4 1.9 5.8s3 2 5.1 2c.7 0 1.1.4 1.1 1.1s-.4 1.1-1.1 1.1c-3 0-5.4-.9-7.1-2.8-1.7-1.8-2.5-4.3-2.5-7.3v-27h-5.3c-.7 0-1.1-.4-1.1-1.1s.4-1.1 1.1-1.1h5.3z"/><path d="m512.6 249.2v25.4c0 .9-.5 1.4-1.4 1.4s-1.4-.5-1.4-1.4v-54.5c0-.9.5-1.4 1.4-1.4h28.8c.8 0 1.2.4 1.2 1.2s-.4 1.2-1.2 1.2h-27.5v25.7h21.5c.8 0 1.2.4 1.2 1.2s-.4 1.2-1.2 1.2z"/><path d="m548.5 241.3c3-3.4 7.3-5.1 12.9-5.1s9.8 1.7 12.9 5.1c3 3.4 4.5 8.5 4.5 15.3 0 6.9-1.5 12-4.5 15.4s-7.3 5.1-12.9 5.1-9.8-1.7-12.9-5.1c-3-3.4-4.5-8.5-4.5-15.4-.1-6.8 1.5-11.9 4.5-15.3zm12.9 33.6c9.8 0 14.7-6.1 14.7-18.3 0-12.1-4.9-18.2-14.7-18.2s-14.7 6.1-14.7 18.2c0 12.2 4.9 18.3 14.7 18.3z"/><path d="m588.4 237.1c.3-.3.6-.4.9-.4s.6.1.9.4.4.6.4.9v8.3c1-3 2.7-5.4 5.1-7.3 2.5-1.8 5.6-2.8 9.4-2.8.7 0 1.1.4 1.1 1.1s-.4 1.1-1.1 1.1c-4.7 0-8.3 1.6-10.8 4.8s-3.7 7.2-3.7 12.1v20.1c0 .3-.1.6-.4.9s-.6.4-.9.4-.6-.1-.9-.4-.4-.6-.4-.9v-37.4c.1-.3.2-.6.4-.9z"/><path d="m655.6 236.2c10.1 0 15.1 5 15.1 15v24.1c0 .3-.1.6-.4.9s-.6.4-.9.4-.6-.1-.9-.4-.4-.6-.4-.9v-24.1c0-8.6-4.2-12.9-12.6-12.9-4.2 0-7.3 1.2-9.4 3.7-2 2.4-3.1 5.6-3.1 9.4v24.1c0 .3-.1.6-.4.9s-.6.4-.9.4-.6-.1-.9-.4-.4-.6-.4-.9v-24.1c0-4-.9-7.1-2.7-9.4s-5-3.5-9.6-3.5c-4.2 0-7.4 1.4-9.5 4.3s-3.2 6.4-3.2 10.5v22.3c0 .3-.1.6-.4.9s-.6.4-.9.4-.6-.1-.9-.4-.4-.6-.4-.9v-37.6c0-.3.1-.6.4-.9s.6-.4.9-.4.6.1.9.4.4.6.4.9v6.5c.7-2.2 2.1-4.1 4.3-5.8s5.1-2.5 8.6-2.5c7.3 0 11.9 2.6 13.7 7.9.7-2.1 2.2-3.9 4.4-5.5 2.6-1.6 5.6-2.4 9.2-2.4z"/><path d="m708 275.6c0-4.3.5-8.3 1.4-12.1.9-3.7 2.1-7 3.6-9.6 1.5-2.7 3.1-5.2 4.8-7.6 1.8-2.4 3.5-4.6 5.3-6.6s3.4-4 4.9-5.8c1.5-1.9 2.7-3.9 3.6-6 .9-2.2 1.4-4.4 1.4-6.6h-32c-.8 0-1.2-.4-1.2-1.2s.4-1.2 1.2-1.2h33.7c.7 0 1.1.4 1.1 1.1 0 3.6-.9 7.1-2.6 10.3s-3.8 6.2-6.2 9-4.9 5.7-7.4 8.8-4.6 7-6.3 11.8-2.6 10-2.6 15.8c0 .3-.1.5-.4.8s-.5.3-.8.3-.7-.1-.9-.3c-.5-.4-.6-.6-.6-.9z"/><path d="m794.6 257.5c0 .7-.4 1.1-1.1 1.1h-16.9v16.8c0 .3-.1.6-.4.9s-.6.4-.9.4-.6-.1-.9-.4-.4-.6-.4-.9v-16.8h-16.9c-.7 0-1.1-.4-1.1-1.1s.4-1.1 1.1-1.1h16.9v-16.9c0-.3.1-.6.4-.9s.6-.4.9-.4.6.1.9.4.4.6.4.9v16.9h16.9c.7 0 1.1.3 1.1 1.1z"/><path d="m837.1 221.2h-17.6c-.8 0-1.2-.4-1.2-1.2s.4-1.2 1.2-1.2h37.9c.8 0 1.2.4 1.2 1.2s-.4 1.2-1.2 1.2h-17.6v54.1c0 .9-.5 1.4-1.4 1.4s-1.4-.5-1.4-1.4v-54.1z"/><path d="m869.4 223.9c0 1.2-.5 1.8-1.5 1.8s-1.5-.6-1.5-1.8.5-1.8 1.5-1.8 1.5.6 1.5 1.8zm-2.4 13.2c.3-.3.6-.4.9-.4s.6.1.9.4.4.6.4.9v37.4c0 .3-.1.6-.4.9s-.6.4-.9.4-.6-.1-.9-.4-.4-.6-.4-.9v-37.4c0-.3.1-.6.4-.9z"/><path d="m883.2 276.3c-.3.3-.6.4-.9.4s-.6-.1-.9-.4-.4-.6-.4-.9v-37.4c0-.3.1-.6.4-.9s.6-.4.9-.4.6.1.9.4.4.6.4.9v6.4c.8-2.1 2.3-4 4.5-5.7s5.2-2.5 8.8-2.5c10.1 0 15.2 5 15.2 15v24.1c0 .3-.1.6-.4.9s-.6.4-.9.4-.6-.1-.9-.4-.4-.6-.4-.9v-24.1c0-4-.9-7.1-2.8-9.4s-5.2-3.4-9.9-3.4c-4.3 0-7.6 1.4-9.9 4.1s-3.4 5.9-3.4 9.6v23.3c.1.4 0 .7-.3.9z"/><path d="m934.2 272.8 14.2-35.2c.2-.6.6-.8 1.2-.8.3 0 .6.1.9.4s.4.6.4.9c0 .2-.1.5-.2.7l-18 43.2c-1.8 4.1-3.8 7-6.1 8.7-2.3 1.6-5.4 2.5-9.4 2.5-.7 0-1.1-.4-1.1-1.1s.4-1.1 1.1-1.1c4.3 0 7.4-1 9.3-3.1s4-6.1 6.4-12.1l-15.2-37c-.1-.2-.2-.5-.2-.7 0-.3.1-.6.4-.9s.6-.4.9-.4c.6 0 1 .3 1.2.8z"/><path d="m984.5 266.5c-.6 0-1-.3-1.2-.9l-21.6-41.2v51c0 .3-.1.6-.4.9s-.6.4-.9.4-.6-.1-.9-.4-.4-.6-.4-.9v-56c0-.3.1-.6.4-.9s.6-.4.9-.4c.5 0 .9.2 1.1.7l23 43.9 23-43.9c.2-.5.6-.7 1.1-.7.3 0 .6.1.9.4s.4.6.4.9v56c0 .3-.1.6-.4.9s-.6.4-.9.4-.6-.1-.9-.4-.4-.6-.4-.9v-51l-21.6 41.2c-.2.6-.6.9-1.2.9z"/><path d="m1047.4 277.2c-17.5 0-26.2-9.9-26.2-29.8 0-9.9 2.3-17.4 6.8-22.4s11-7.5 19.4-7.5c4 0 7.6.8 11 2.4 3.3 1.6 6 3.7 7.9 6.5.2.3.3.7.3.9 0 .8-.4 1.2-1.2 1.2-.4 0-.7-.2-1-.5-1.8-2.4-4.1-4.3-7.1-5.8s-6.3-2.3-9.9-2.3c-15.6 0-23.5 9.2-23.5 27.5 0 9.7 2 16.7 5.9 21s9.8 6.4 17.6 6.4c3.3 0 6.5-.7 9.6-2 3-1.3 5.5-3.3 7.4-5.9.3-.3.6-.5 1-.5.8 0 1.2.4 1.2 1.2 0 .3-.1.5-.3.8-1.8 2.7-4.4 4.9-7.9 6.5-3.3 1.5-7 2.3-11 2.3z"/><path d="m1109.2 276h-29.8c-.9 0-1.4-.5-1.4-1.4v-54.5c0-.9.5-1.4 1.4-1.4h28.8c.8 0 1.2.4 1.2 1.2s-.4 1.2-1.2 1.2h-27.5v24.9h21.4c.8 0 1.2.4 1.2 1.2s-.4 1.2-1.2 1.2h-21.4v25.2h28.5c.8 0 1.2.4 1.2 1.2s-.4 1.2-1.2 1.2z"/><path d="m1138.5 256.6c0-6.5 1.5-11.5 4.5-15.1 3-3.5 7.3-5.3 12.8-5.3 3.3 0 6.1.6 8.4 1.7s4 2.6 5 4.4 1.7 3.6 2.1 5.1c.4 1.6.6 3.3.6 5 0 1.4-.1 2.5-.2 3.1-.2.9-.8 1.4-1.9 1.4h-28.6c0 12 5.2 17.9 15.6 17.9 4.6 0 8.6-1.4 12-4.3.2-.2.5-.3.7-.3.7 0 1.1.4 1.1 1.1 0 .3-.2.6-.5.9-3.3 3.1-7.8 4.7-13.3 4.7-12.2.2-18.3-6.6-18.3-20.3zm30.9-4.1c0-1.9-.2-3.6-.6-5.1s-1.1-3-2-4.4c-1-1.4-2.4-2.5-4.2-3.3s-4.1-1.2-6.7-1.2c-4.7 0-8.3 1.4-10.8 4.3s-3.8 6.9-4 12.1h28.1c.1-1.2.2-2 .2-2.4z"/><path d="m1195.5 236.2c1.9 0 3.7.3 5.4.8 1.7.6 3 1.2 4 2s1.8 1.6 2.5 2.3c.7.8 1.2 1.4 1.5 2l.4.8v-27.5c0-.3.1-.6.4-.9s.6-.4.9-.4.6.1.9.4.4.6.4.9v43.9c0 5.3-1.5 9.4-4.5 12.2s-7 4.3-11.9 4.3c-5.6 0-9.8-1.7-12.9-5.1-3-3.4-4.5-8.5-4.5-15.4 0-6.8 1.5-11.9 4.5-15.3 3-3.3 7.3-5 12.9-5zm13.8 12.2c-.1-.3-.3-.7-.4-1.1-.2-.5-.6-1.2-1.4-2.4-.8-1.1-1.6-2.1-2.6-3s-2.3-1.7-4-2.4-3.5-1.1-5.5-1.1c-9.8 0-14.7 6.1-14.7 18.2 0 12.2 4.9 18.3 14.7 18.3 4.2 0 7.5-1.2 10.1-3.6 2.5-2.4 3.8-6 3.8-10.7z"/><path d="m1226.6 223.9c0 1.2-.5 1.8-1.5 1.8s-1.5-.6-1.5-1.8.5-1.8 1.5-1.8 1.5.6 1.5 1.8zm-2.4 13.2c.3-.3.6-.4.9-.4s.6.1.9.4.4.6.4.9v37.4c0 .3-.1.6-.4.9s-.6.4-.9.4-.6-.1-.9-.4-.4-.6-.4-.9v-37.4c0-.3.1-.6.4-.9z"/><path d="m1240.3 237.4v-10.4c0-.3.1-.6.4-.9s.6-.4.9-.4.6.1.9.4.4.6.4.9v10.4h7.7c.7 0 1.1.4 1.1 1.1s-.4 1.1-1.1 1.1h-7.7v27c0 2.5.6 4.4 1.9 5.8s3 2 5.1 2c.7 0 1.1.4 1.1 1.1s-.4 1.1-1.1 1.1c-3 0-5.4-.9-7.1-2.8-1.7-1.8-2.5-4.3-2.5-7.3v-27h-5.3c-.7 0-1.1-.4-1.1-1.1s.4-1.1 1.1-1.1h5.3z"/><path d="m1262.7 241.3c3-3.4 7.3-5.1 12.9-5.1s9.8 1.7 12.9 5.1c3 3.4 4.5 8.5 4.5 15.3 0 6.9-1.5 12-4.5 15.4s-7.3 5.1-12.9 5.1-9.8-1.7-12.9-5.1c-3-3.4-4.5-8.5-4.5-15.4-.1-6.8 1.4-11.9 4.5-15.3zm12.8 33.6c9.8 0 14.7-6.1 14.7-18.3 0-12.1-4.9-18.2-14.7-18.2s-14.7 6.1-14.7 18.2c0 12.2 4.9 18.3 14.7 18.3z"/><path d="m1302.6 237.1c.3-.3.6-.4.9-.4s.6.1.9.4.4.6.4.9v8.3c1-3 2.7-5.4 5.1-7.3 2.5-1.8 5.6-2.8 9.4-2.8.7 0 1.1.4 1.1 1.1s-.4 1.1-1.1 1.1c-4.7 0-8.3 1.6-10.8 4.8s-3.7 7.2-3.7 12.1v20.1c0 .3-.1.6-.4.9s-.6.4-.9.4-.6-.1-.9-.4-.4-.6-.4-.9v-37.4c0-.3.2-.6.4-.9z"/></g></svg>