<svg enable-background="new 0 0 256 256" height="256" viewBox="0 0 256 256" width="256" xmlns="http://www.w3.org/2000/svg"><rect fill="#22272c" height="255" width="255" x=".5" y=".5"/><path d="m255 1v254h-254v-254zm1-1h-256v256h256z"/><g fill="#fff"><path d="m80.7 111.2c-12.3 0-18.5-7-18.5-21 0-7 1.6-12.3 4.8-15.8s7.8-5.3 13.7-5.3c2.8 0 5.4.6 7.7 1.7 2.4 1.1 4.2 2.6 5.6 4.6.2.2.2.5.2.7 0 .6-.3.8-.8.8-.3 0-.5-.1-.7-.4-1.2-1.7-2.9-3-5-4.1s-4.4-1.6-7-1.6c-11 0-16.6 6.5-16.6 19.4 0 6.8 1.4 11.8 4.2 14.8s6.9 4.5 12.4 4.5c2.4 0 4.6-.5 6.8-1.4 2.1-.9 3.9-2.3 5.3-4.2.2-.2.4-.4.7-.4.6 0 .8.3.8.8 0 .2-.1.4-.2.5-1.3 1.9-3.1 3.4-5.5 4.6-2.5 1.2-5.1 1.8-7.9 1.8z"/><path d="m104.2 91.5v17.9c0 .6-.3 1-1 1-.6 0-1-.3-1-1v-38.5c0-.6.3-1 1-1h20.3c.6 0 .8.3.8.8 0 .6-.3.8-.8.8h-19.4v18.1h15.1c.6 0 .8.3.8.8 0 .6-.3.8-.8.8h-15z"/><path d="m135.3 110.1c0-3 .3-5.9 1-8.5.6-2.6 1.5-4.9 2.5-6.8s2.2-3.7 3.4-5.4 2.5-3.2 3.8-4.6 2.4-2.8 3.4-4.1 1.9-2.7 2.5-4.3c.6-1.5 1-3.1 1-4.7h-22.6c-.6 0-.8-.3-.8-.8 0-.6.3-.8.8-.8h23.7c.5 0 .8.3.8.8 0 2.6-.6 5-1.8 7.3s-2.7 4.4-4.4 6.4-3.4 4-5.2 6.2c-1.7 2.2-3.2 5-4.4 8.3-1.2 3.4-1.8 7.1-1.8 11.2 0 .2-.1.4-.3.5-.2.2-.4.2-.6.2s-.5-.1-.7-.2c-.2-.4-.3-.5-.3-.7z"/><path d="m196.4 97.3c0 .5-.3.8-.8.8h-11.9v11.9c0 .2-.1.5-.3.6-.2.2-.4.3-.6.3s-.5-.1-.6-.3c-.2-.2-.3-.4-.3-.6v-11.9h-11.9c-.5 0-.8-.3-.8-.8s.3-.8.8-.8h11.9v-11.9c0-.2.1-.5.3-.6s.4-.3.6-.3.5.1.6.3c.2.2.3.4.3.6v11.9h11.9c.6 0 .8.3.8.8z"/><path d="m37.8 143.7h-12.4c-.6 0-.8-.3-.8-.8 0-.6.3-.8.8-.8h26.8c.6 0 .8.3.8.8 0 .6-.3.8-.8.8h-12.5v38.2c0 .6-.3 1-1 1s-1-.3-1-1v-38.2z"/><path d="m60.6 145.6c0 .8-.4 1.3-1.1 1.3s-1.1-.4-1.1-1.3.4-1.3 1.1-1.3 1.1.4 1.1 1.3zm-1.7 9.3c.2-.2.4-.3.6-.3s.5.1.6.3.3.4.3.6v26.4c0 .2-.1.5-.3.6s-.4.3-.6.3-.5-.1-.6-.3c-.2-.2-.3-.4-.3-.6v-26.4c0-.2.1-.4.3-.6z"/><path d="m70.4 182.6c-.2.2-.4.3-.6.3s-.5-.1-.6-.3c-.2-.2-.3-.4-.3-.6v-26.4c0-.2.1-.5.3-.6.2-.2.4-.3.6-.3s.4.1.6.3.3.4.3.6v4.5c.6-1.5 1.6-2.8 3.2-4s3.7-1.8 6.2-1.8c7.2 0 10.7 3.5 10.7 10.6v17c0 .2-.1.5-.3.6-.2.2-.4.3-.6.3s-.4-.1-.6-.3-.3-.4-.3-.6v-17c0-2.8-.7-5-2-6.6s-3.7-2.4-7-2.4c-3 0-5.4 1-7 2.9s-2.4 4.2-2.4 6.8v16.4c0 .2 0 .4-.2.6z"/><path d="m106.3 180.1 10-24.8c.1-.4.4-.6.8-.6.2 0 .5.1.6.3s.3.4.3.6 0 .3-.1.5l-12.7 30.5c-1.2 2.9-2.7 5-4.3 6.1-1.6 1.2-3.8 1.7-6.6 1.7-.5 0-.8-.3-.8-.8s.3-.8.8-.8c3 0 5.2-.7 6.5-2.2s2.8-4.3 4.5-8.5l-10.6-26.1c-.1-.2-.1-.3-.1-.5s.1-.5.3-.6c.2-.2.4-.3.6-.3.4 0 .7.2.8.6z"/><path d="m141.9 175.6c-.4 0-.7-.2-.8-.6l-15.2-29.1v36c0 .2-.1.5-.3.6s-.4.3-.6.3-.5-.1-.6-.3-.3-.4-.3-.6v-39.5c0-.2.1-.5.3-.6.2-.2.4-.3.6-.3.4 0 .6.2.8.5l16.2 31 16.2-31c.2-.3.4-.5.8-.5.2 0 .5.1.6.3.2.2.3.4.3.6v39.5c0 .2-.1.5-.3.6-.2.2-.4.3-.6.3s-.5-.1-.6-.3-.3-.4-.3-.6v-36l-15.4 29.1c-.2.4-.4.6-.8.6z"/><path d="m186.3 183.2c-12.3 0-18.5-7-18.5-21 0-7 1.6-12.3 4.8-15.8s7.8-5.3 13.7-5.3c2.8 0 5.4.6 7.7 1.7 2.4 1.1 4.2 2.6 5.6 4.6.2.2.2.5.2.7 0 .6-.3.8-.8.8-.3 0-.5-.1-.7-.4-1.2-1.7-2.9-3-5-4.1s-4.4-1.6-7-1.6c-11 0-16.6 6.5-16.6 19.4 0 6.8 1.4 11.8 4.2 14.8s6.9 4.5 12.4 4.5c2.4 0 4.6-.5 6.8-1.4 2.1-.9 3.9-2.3 5.3-4.2.2-.2.4-.4.7-.4.6 0 .8.3.8.8 0 .2-.1.4-.2.5-1.3 1.9-3.1 3.4-5.5 4.6-2.5 1.2-5.1 1.8-7.9 1.8z"/><path d="m229.9 182.4h-21.1c-.6 0-1-.3-1-1v-38.5c0-.6.3-1 1-1h20.3c.6 0 .8.3.8.8 0 .6-.3.8-.8.8h-19.4v17.5h15.1c.6 0 .8.3.8.8s-.3.8-.8.8h-15.1v17.8h20.1c.6 0 .8.3.8.8.1.9-.2 1.2-.7 1.2z"/></g></svg>